PathFileType	4	(X/Y/Z)	TVC_36_Cal_03_0_static_RCNL2025.trc
DataRate	CameraRate	NumFrames	NumMarkers	Units	OrigDataRate	OrigDataStartFrame	OrigNumFrames
100	100	10	27	mm	100	87	139
Frame#	Time	R_Shoulder			L_Shoulder			C7			J_Notch			R_Elbow			L_Elbow			R_Wrist			L_Wrist			R_Asis			L_Asis			R_Psis			L_Psis			Sacral			Thoracic			Sternum			R_Thigh_Lateral			R_Knee_Lateral			R_Shank_Lateral			R_Ankle_Lateral			R_Heel			R_Toe			L_Thigh_Lateral			L_Knee_Lateral			L_Shank_Lateral			L_Ankle_Lateral			L_Heel			L_Toe		
		X1	Y1	Z1	X2	Y2	Z2	X3	Y3	Z3	X4	Y4	Z4	X5	Y5	Z5	X6	Y6	Z6	X7	Y7	Z7	X8	Y8	Z8	X9	Y9	Z9	X10	Y10	Z10	X11	Y11	Z11	X12	Y12	Z12	X13	Y13	Z13	X14	Y14	Z14	X15	Y15	Z15	X16	Y16	Z16	X17	Y17	Z17	X18	Y18	Z18	X19	Y19	Z19	X20	Y20	Z20	X21	Y21	Z21	X22	Y22	Z22	X23	Y23	Z23	X24	Y24	Z24	X25	Y25	Z25	X26	Y26	Z26	X27	Y27	Z27
87	0.86000000	-240.733307	1393.216675	27.960478	-347.832031	1368.799927	-318.162903	-343.295013	1433.958374	-128.576691	-184.823807	1320.064941	-162.241425	-240.125320	1127.108398	168.512650	-310.568237	1069.092407	-422.037292	-202.969246	906.603119	131.200806	-205.240181	879.802887	-396.946609	-194.939209	900.183838	-28.763554	-283.013367	903.281067	-274.692444	-382.273926	933.042664	-47.477543	-412.025574	925.930481	-125.218781	-397.149750	929.486572	-86.348162	-379.597260	1155.737793	-100.527222	-147.521774	1168.481689	-182.092392	-243.203613	634.096375	49.776047	-319.479279	461.360413	-6.180902	-342.154877	261.734039	24.393654	-343.319977	69.600471	-56.557716	-391.723785	55.335648	-103.238518	-218.235962	40.359776	-96.263550	-335.177856	672.794922	-364.833527	-309.061432	467.054718	-320.651947	-372.379211	274.576935	-334.306763	-308.021698	69.910332	-316.944794	-314.565094	51.218475	-253.911560	-192.629257	44.954281	-377.766754
88	0.87000000	-240.923462	1393.257690	27.418736	-346.906677	1368.491699	-319.399078	-343.707581	1434.161377	-128.896530	-184.875153	1320.082642	-162.817963	-240.216782	1127.427856	168.069336	-310.646851	1068.722412	-422.464874	-202.913849	906.801270	130.896168	-205.261520	879.649872	-397.027496	-195.194229	900.239685	-28.963749	-283.104736	903.068359	-274.587341	-382.504852	933.134399	-47.723568	-412.330170	926.022278	-125.554123	-397.417511	929.578339	-86.638845	-379.545929	1155.698853	-101.373093	-147.595444	1168.526611	-182.396255	-243.327255	634.906433	49.934368	-319.692535	461.287720	-6.371828	-342.313080	261.766235	24.380741	-343.281036	69.583534	-56.586185	-391.680878	55.370632	-103.273521	-218.223206	40.356243	-96.225899	-335.062103	672.793335	-365.061310	-309.007996	466.992737	-320.817078	-372.339630	274.611420	-334.431793	-308.002167	69.930367	-316.925934	-314.583191	51.239788	-253.892212	-192.674805	44.926342	-377.827057
89	0.88000000	-241.180481	1393.295166	27.024651	-346.777954	1368.436157	-320.036591	-343.994019	1434.363281	-129.366516	-184.947632	1320.157837	-163.203217	-240.387970	1127.631836	168.004257	-310.416351	1068.631592	-423.082336	-202.845123	907.007202	130.674767	-205.027122	879.408478	-397.340195	-195.241776	900.291626	-29.158995	-283.216827	903.126404	-274.785522	-382.558441	933.168518	-48.073273	-412.510925	926.029053	-125.923943	-397.534683	929.598785	-86.998608	-379.523193	1155.691284	-101.726982	-147.564529	1168.495728	-182.715683	-243.512573	634.983093	50.060318	-319.898651	461.238159	-6.506347	-342.312042	261.784790	24.292387	-343.301361	69.560806	-56.600197	-391.771759	55.299618	-103.230255	-218.214874	40.341450	-96.209312	-334.814636	672.847534	-365.388092	-309.006348	466.872101	-320.939240	-372.274780	274.600830	-334.538483	-308.027191	69.887856	-316.891205	-314.528870	51.145241	-253.917160	-192.689789	44.920532	-377.795959
90	0.89000000	-241.491013	1393.408569	26.526518	-346.884491	1368.344727	-320.423737	-344.037872	1434.236328	-129.963303	-184.991089	1320.263672	-163.642517	-240.324326	1127.863892	167.439865	-310.339539	1068.549927	-423.343994	-202.707634	907.213501	130.362762	-205.298676	879.222626	-397.221893	-195.423859	900.390930	-29.357723	-283.190338	903.142517	-275.073364	-382.725342	933.060852	-48.473183	-412.390106	925.940308	-126.325035	-397.557724	929.500580	-87.399109	-379.857819	1155.786865	-102.025299	-147.648758	1168.481201	-183.026611	-243.804581	635.391113	49.638142	-319.989624	461.239136	-6.667935	-342.391357	261.775848	24.188061	-343.349915	69.584976	-56.605457	-391.665619	55.230648	-103.323502	-218.239288	40.337730	-96.223343	-334.854553	672.189270	-365.671051	-308.872406	466.888580	-321.200195	-372.270416	274.430695	-334.653412	-307.950134	69.916237	-316.979156	-314.549255	51.211868	-253.907257	-192.652863	44.843582	-377.766968
91	0.90000000	-241.791916	1393.493774	26.004906	-347.290558	1368.399536	-320.621338	-344.135315	1434.164307	-130.736664	-185.075394	1320.283325	-164.044937	-240.465118	1128.045532	167.183884	-310.308685	1068.429932	-423.598602	-202.516365	907.378113	129.954853	-205.485031	879.044708	-397.185776	-195.697281	900.374512	-29.543785	-283.352692	903.063110	-275.277954	-382.882507	933.020996	-48.878002	-412.338531	925.863281	-126.732201	-397.610519	929.442139	-87.805101	-380.337036	1155.887939	-102.172745	-147.798447	1168.541260	-183.255829	-244.392792	635.665894	49.481991	-320.108490	461.276733	-6.752817	-342.561432	261.898468	24.144234	-343.379303	69.524704	-56.603298	-391.679962	55.256390	-103.311012	-218.311081	40.388199	-96.229736	-334.817078	672.172485	-365.908997	-308.870941	466.920166	-321.400146	-372.204041	274.381775	-334.801361	-307.988770	69.895988	-316.969604	-314.554504	51.188255	-253.987808	-192.690170	44.858768	-377.795288
92	0.91000000	-241.990524	1393.612671	25.501480	-347.679504	1368.300293	-320.858215	-344.362152	1434.426758	-131.327087	-185.207169	1320.364136	-164.536880	-240.697266	1128.156372	166.840225	-310.249115	1068.317993	-423.698853	-202.313812	907.568726	129.622433	-205.475044	878.878937	-397.325714	-195.944458	900.514893	-29.764372	-283.490601	903.059448	-275.367889	-383.221283	933.156311	-49.142338	-412.343262	925.756775	-127.144829	-397.782272	929.456543	-88.143583	-380.897980	1156.128540	-102.344749	-147.879120	1168.483276	-183.440277	-244.544937	635.694519	49.435673	-320.218689	461.274963	-6.922854	-342.624573	262.032196	24.140188	-343.455902	69.522041	-56.680828	-391.710693	55.257584	-103.373558	-218.268692	40.394661	-96.222099	-334.524994	672.884644	-366.133331	-308.754883	466.844666	-321.586426	-372.117828	274.392395	-335.006409	-307.947052	69.917725	-316.986328	-314.566925	51.140881	-253.959503	-192.695755	44.867184	-377.813843
93	0.92000000	-242.097717	1393.790039	25.038551	-347.442902	1368.166870	-321.667267	-344.256683	1434.090088	-132.059387	-185.327209	1320.380371	-164.820312	-240.970718	1128.365234	166.515015	-310.115601	1068.332153	-424.193909	-202.309502	907.747742	129.488583	-205.592018	878.691223	-397.425201	-196.148941	900.602234	-29.784237	-283.544128	903.053528	-275.575897	-383.519928	933.135315	-49.474865	-412.559814	925.745728	-127.511986	-398.039871	929.440521	-88.493425	-381.298737	1156.334595	-102.592659	-147.954163	1168.477783	-183.816376	-244.590836	635.828613	49.305397	-320.352417	461.223206	-7.030677	-342.516327	261.940369	23.935446	-343.433319	69.561890	-56.671108	-391.790253	55.225731	-103.190659	-218.290680	40.376446	-96.188454	-334.435730	672.960327	-366.372406	-308.616608	466.835632	-321.815277	-372.039825	274.338593	-335.118256	-307.964813	69.876808	-316.959930	-314.544342	51.105721	-253.950974	-192.610077	44.931637	-377.727661
94	0.93000000	-242.251175	1393.865234	24.622107	-347.257050	1368.032715	-322.436127	-343.894104	1433.868286	-132.846954	-185.484268	1320.419678	-165.343948	-241.198898	1128.513306	166.162354	-310.143555	1068.150024	-424.234467	-201.967918	907.936798	128.980389	-205.633942	878.559509	-397.587341	-196.359131	900.671448	-29.953775	-283.642548	902.993347	-275.826447	-383.818665	933.266785	-49.872669	-412.802826	925.693970	-127.861549	-398.310745	929.480377	-88.867109	-381.670654	1156.342285	-102.850822	-148.076981	1168.478516	-184.131836	-245.172272	635.923035	49.035225	-321.985474	459.332550	-6.498511	-342.602875	262.062195	23.808712	-343.474915	69.451797	-56.694962	-391.839569	55.268230	-103.155045	-218.275635	40.384277	-96.253242	-334.357422	672.843811	-366.736450	-308.590820	466.765381	-322.072601	-371.993195	274.285217	-335.265137	-307.933624	69.788658	-317.014130	-314.564301	51.123947	-253.933685	-192.651703	44.823418	-377.752960
95	0.94000000	-242.516373	1393.936523	24.113499	-347.275726	1367.945068	-322.953339	-343.826019	1433.802856	-133.497742	-185.527328	1320.423584	-165.618423	-241.460922	1128.706543	165.844086	-310.294586	1067.768188	-424.640747	-202.027847	908.088806	128.695854	-205.345215	878.508514	-397.916611	-196.419113	900.795227	-30.377728	-283.757385	903.033386	-276.096924	-384.013336	933.299316	-50.278931	-413.070618	925.807129	-128.176392	-398.541977	929.553223	-89.227661	-381.661682	1156.361938	-103.500107	-148.218262	1168.546143	-184.372971	-245.360138	635.977905	48.861740	-322.131317	459.269714	-6.506462	-342.552734	262.080688	23.708941	-343.345856	69.561691	-56.616619	-391.753357	55.223259	-103.227425	-218.222580	40.337814	-96.269539	-334.275421	672.940613	-367.101562	-308.460510	466.777466	-322.273224	-371.969421	274.289459	-335.459503	-307.944366	69.824905	-316.992645	-314.566101	51.139130	-253.929337	-192.602661	44.850727	-377.720490
96	0.95000000	-242.951813	1394.140137	23.721111	-347.285248	1367.854858	-323.481903	-344.354950	1433.977051	-133.959869	-185.667740	1320.386108	-165.949234	-241.674667	1128.801880	165.484406	-310.405060	1067.488647	-424.956665	-202.339539	908.254028	128.382805	-205.257202	878.099518	-397.839020	-196.728821	900.758240	-30.432180	-283.804810	902.969299	-276.325745	-384.153992	933.295593	-50.566181	-413.281128	925.880737	-128.539810	-398.717560	929.588165	-89.552996	-381.440613	1156.283203	-104.038391	-148.293793	1168.560913	-184.769806	-245.384506	636.121643	48.802559	-322.195770	459.360718	-6.774861	-342.644043	262.106537	23.683653	-343.398621	69.579918	-56.646713	-391.762085	55.264286	-103.313835	-218.227036	40.331619	-96.241997	-334.219299	672.938110	-367.355743	-308.338135	466.766388	-322.542236	-371.870911	274.312744	-335.642426	-307.933044	69.785477	-316.991425	-314.505768	51.260750	-253.923096	-192.583328	44.849033	-377.680145
